# xmcd
#
# Track frame offsets: 
#        150
#        14802
#        36777
#        57657
#        74317
#        90507
#        109522
#        127957
#        138572
#        153072
#        171820
#        184022
#
# Disc length: 2664 seconds
#
# Revision: 3
# Processed by: cddbd v1.5.2PL0 Copyright (c) Steve Scherf et al.
# Submitted via: ExactAudioCopy v1.0b2
#
DISCID=9e0a660c
DTITLE=Magic Sam - West Side Soul
DYEAR=0
DGENRE=Blues
TTITLE0=That's All I Need
TTITLE1=I Need You So Bad
TTITLE2=I Feel So Good (I Wanna Boogie)
TTITLE3=All Of Your Love
TTITLE4=I Don't Want No Woman
TTITLE5=Sweet Home Chicago
TTITLE6=I Found A New Love
TTITLE7=Every Night And Every Day
TTITLE8=Lookin' Good
TTITLE9=My Love Will Never Die
TTITLE10=Mama, Mama-Talk To Your Daughter
TTITLE11=I Don't Want No Woman (Alternate Take)
EXTD=
EXTT0=
EXTT1=
EXTT2=
EXTT3=
EXTT4=
EXTT5=
EXTT6=
EXTT7=
EXTT8=
EXTT9=
EXTT10=
EXTT11=
PLAYORDER=
